<svg width="240" height="159" viewBox="0 0 240 159" fill="none" xmlns="http://www.w3.org/2000/svg">
<g clip-path="url(#clip0)">
<path d="M152.94 119.197V157.526H47.8759C35.9053 157.526 26.1659 148.929 26.1659 138.362C26.1659 127.795 35.9053 119.197 47.8759 119.197H152.94Z" fill="#F2F2F2"/>
<path d="M155.521 157.231C155.521 157.622 155.351 157.997 155.048 158.273C154.746 158.55 154.336 158.705 153.908 158.705H46.0046C40.1441 158.705 34.5237 156.577 30.3798 152.79C26.2358 149.002 23.9078 143.865 23.9078 138.509C23.9078 133.153 26.2358 128.016 30.3798 124.228C34.5237 120.441 40.1441 118.313 46.0046 118.313H153.908C154.336 118.313 154.746 118.468 155.048 118.745C155.351 119.021 155.521 119.396 155.521 119.787C155.521 120.178 155.351 120.553 155.048 120.829C154.746 121.106 154.336 121.261 153.908 121.261H46.0046C40.9997 121.261 36.1998 123.078 32.6608 126.313C29.1218 129.548 27.1336 133.935 27.1336 138.509C27.1336 143.083 29.1218 147.47 32.6608 150.705C36.1998 153.94 40.9997 155.757 46.0046 155.757H153.908C154.336 155.757 154.746 155.912 155.048 156.189C155.351 156.465 155.521 156.84 155.521 157.231Z" fill="#CDB536"/>
<path d="M152.94 128.042H40.0368C39.9513 128.042 39.8692 128.011 39.8087 127.956C39.7482 127.901 39.7142 127.826 39.7142 127.748C39.7142 127.669 39.7482 127.594 39.8087 127.539C39.8692 127.484 39.9513 127.453 40.0368 127.453H152.94C153.026 127.453 153.108 127.484 153.168 127.539C153.229 127.594 153.263 127.669 153.263 127.748C153.263 127.826 153.229 127.901 153.168 127.956C153.108 128.011 153.026 128.042 152.94 128.042Z" fill="#CCCCCC"/>
<path d="M152.94 135.118H40.0368C39.9513 135.118 39.8692 135.087 39.8087 135.032C39.7482 134.977 39.7142 134.902 39.7142 134.824C39.7142 134.745 39.7482 134.67 39.8087 134.615C39.8692 134.56 39.9513 134.529 40.0368 134.529H152.94C153.026 134.529 153.108 134.56 153.168 134.615C153.229 134.67 153.263 134.745 153.263 134.824C153.263 134.902 153.229 134.977 153.168 135.032C153.108 135.087 153.026 135.118 152.94 135.118Z" fill="#CCCCCC"/>
<path d="M152.94 142.194H40.0368C39.9513 142.194 39.8692 142.163 39.8087 142.108C39.7482 142.053 39.7142 141.978 39.7142 141.9C39.7142 141.821 39.7482 141.746 39.8087 141.691C39.8692 141.636 39.9513 141.605 40.0368 141.605H152.94C153.026 141.605 153.108 141.636 153.168 141.691C153.229 141.746 153.263 141.821 153.263 141.9C153.263 141.978 153.229 142.053 153.168 142.108C153.108 142.163 153.026 142.194 152.94 142.194Z" fill="#CCCCCC"/>
<path d="M152.94 149.27H40.0368C39.9513 149.27 39.8692 149.239 39.8087 149.184C39.7482 149.129 39.7142 149.054 39.7142 148.976C39.7142 148.897 39.7482 148.822 39.8087 148.767C39.8692 148.712 39.9513 148.681 40.0368 148.681H152.94C153.026 148.681 153.108 148.712 153.168 148.767C153.229 148.822 153.263 148.897 153.263 148.976C153.263 149.054 153.229 149.129 153.168 149.184C153.108 149.239 153.026 149.27 152.94 149.27Z" fill="#CCCCCC"/>
<path d="M234.139 126.412L207.828 156.258L126.017 96.0084C116.695 89.1437 115.013 76.8641 122.267 68.6358C129.521 60.4076 143.007 59.2981 152.328 66.1627L234.139 126.412Z" fill="#F2F2F2"/>
<path d="M210.04 157.508C209.771 157.812 209.382 158.007 208.956 158.049C208.531 158.091 208.105 157.976 207.772 157.731L123.75 95.8536C119.187 92.4929 116.271 87.613 115.644 82.2874C115.017 76.9617 116.731 71.6267 120.408 67.4558C124.085 63.2849 129.424 60.6198 135.25 60.0469C141.077 59.4741 146.914 61.0402 151.478 64.4009L235.5 126.278C235.665 126.4 235.802 126.55 235.904 126.72C236.006 126.89 236.07 127.076 236.092 127.269C236.115 127.461 236.096 127.656 236.036 127.842C235.977 128.028 235.878 128.201 235.745 128.352C235.612 128.503 235.448 128.628 235.262 128.721C235.076 128.814 234.871 128.872 234.661 128.893C234.45 128.913 234.237 128.896 234.034 128.841C233.83 128.787 233.641 128.696 233.476 128.574L149.454 66.6967C147.524 65.2746 145.307 64.2138 142.929 63.575C140.551 62.9362 138.058 62.7319 135.593 62.9738C133.129 63.2156 130.74 63.8989 128.565 64.9846C126.389 66.0704 124.469 67.5372 122.914 69.3014C121.358 71.0655 120.199 73.0925 119.501 75.2664C118.803 77.4403 118.58 79.7186 118.846 81.9711C119.111 84.2237 119.86 86.4063 121.049 88.3944C122.237 90.3825 123.843 92.137 125.774 93.5578L209.796 155.435C210.129 155.681 210.342 156.037 210.387 156.426C210.433 156.814 210.308 157.204 210.04 157.508V157.508Z" fill="#CCCCCC"/>
<path d="M228.067 133.3L140.152 68.5548C140.119 68.5305 140.091 68.5005 140.071 68.4665C140.051 68.4326 140.038 68.3953 140.034 68.3568C140.029 68.3183 140.033 68.2793 140.045 68.2422C140.057 68.205 140.076 68.1704 140.103 68.1402C140.13 68.1101 140.162 68.085 140.2 68.0665C140.237 68.0479 140.278 68.0362 140.32 68.0321C140.362 68.0279 140.404 68.0314 140.445 68.0423C140.486 68.0532 140.524 68.0714 140.557 68.0956L228.472 132.84C228.505 132.865 228.533 132.895 228.553 132.929C228.573 132.963 228.586 133 228.591 133.039C228.595 133.077 228.592 133.116 228.58 133.153C228.568 133.19 228.548 133.225 228.521 133.255C228.495 133.285 228.462 133.311 228.425 133.329C228.387 133.348 228.347 133.359 228.304 133.363C228.262 133.368 228.22 133.364 228.179 133.353C228.138 133.342 228.1 133.324 228.067 133.3V133.3Z" fill="#CCCCCC"/>
<path d="M223.21 138.81L135.294 74.0648C135.228 74.0157 135.185 73.9445 135.176 73.8668C135.167 73.7891 135.192 73.7113 135.246 73.6505C135.3 73.5897 135.377 73.5508 135.462 73.5424C135.547 73.534 135.633 73.5567 135.699 73.6057L223.615 138.35C223.648 138.375 223.675 138.405 223.696 138.439C223.716 138.473 223.729 138.51 223.733 138.549C223.738 138.587 223.734 138.626 223.722 138.663C223.71 138.7 223.69 138.735 223.664 138.765C223.637 138.795 223.604 138.821 223.567 138.839C223.53 138.858 223.489 138.869 223.447 138.873C223.405 138.878 223.362 138.874 223.322 138.863C223.281 138.852 223.243 138.834 223.21 138.81V138.81Z" fill="#CCCCCC"/>
<path d="M218.352 144.32L130.437 79.5747C130.37 79.5257 130.328 79.4544 130.319 79.3767C130.309 79.2989 130.334 79.221 130.388 79.1601C130.442 79.0993 130.52 79.0603 130.605 79.052C130.69 79.0436 130.775 79.0665 130.842 79.1155L218.757 143.86C218.79 143.885 218.818 143.915 218.838 143.949C218.858 143.983 218.871 144.02 218.876 144.058C218.88 144.097 218.876 144.136 218.864 144.173C218.852 144.21 218.833 144.245 218.806 144.275C218.779 144.305 218.747 144.33 218.709 144.349C218.672 144.367 218.632 144.379 218.589 144.383C218.547 144.387 218.505 144.384 218.464 144.373C218.423 144.362 218.385 144.344 218.352 144.32V144.32Z" fill="#CCCCCC"/>
<path d="M213.495 149.83L125.58 85.0847C125.547 85.0604 125.519 85.0304 125.499 84.9964C125.479 84.9625 125.466 84.9252 125.461 84.8867C125.457 84.8482 125.46 84.8092 125.472 84.7721C125.484 84.7349 125.504 84.7003 125.531 84.6701C125.557 84.64 125.59 84.6149 125.627 84.5964C125.665 84.5778 125.705 84.5661 125.747 84.562C125.79 84.5579 125.832 84.5613 125.873 84.5722C125.913 84.5831 125.951 84.6013 125.984 84.6256L213.9 149.37C213.933 149.395 213.96 149.425 213.981 149.459C214.001 149.493 214.014 149.53 214.018 149.568C214.023 149.607 214.019 149.646 214.007 149.683C213.995 149.72 213.976 149.755 213.949 149.785C213.922 149.815 213.889 149.84 213.852 149.859C213.815 149.878 213.774 149.889 213.732 149.893C213.69 149.897 213.647 149.894 213.607 149.883C213.566 149.872 213.528 149.854 213.495 149.83V149.83Z" fill="#CCCCCC"/>
<path d="M239.677 159H0.322581C0.237027 159 0.154977 158.969 0.0944814 158.914C0.0339858 158.858 0 158.783 0 158.705C0 158.627 0.0339858 158.552 0.0944814 158.497C0.154977 158.441 0.237027 158.41 0.322581 158.41H239.677C239.763 158.41 239.845 158.441 239.906 158.497C239.966 158.552 240 158.627 240 158.705C240 158.783 239.966 158.858 239.906 158.914C239.845 158.969 239.763 159 239.677 159Z" fill="#CCCCCC"/>
<path d="M109.058 115.169L105.371 115.168L103.617 102.167L109.06 102.168L109.058 115.169Z" fill="#FFB8B8"/>
<path d="M102.736 114.205H109.848V118.298H98.2582C98.2582 117.761 98.374 117.229 98.5991 116.732C98.8241 116.235 99.154 115.784 99.5698 115.404C99.9856 115.024 100.479 114.723 101.023 114.517C101.566 114.311 102.148 114.205 102.736 114.205V114.205Z" fill="#2F2E41"/>
<path d="M71.3826 115.169L67.6948 115.168L65.941 102.167L71.3839 102.168L71.3826 115.169Z" fill="#FFB8B8"/>
<path d="M65.0606 114.205H72.1728V118.298H60.5826C60.5825 117.761 60.6984 117.229 60.9234 116.732C61.1485 116.235 61.4783 115.784 61.8941 115.404C62.31 115.024 62.8036 114.723 63.3469 114.517C63.8902 114.311 64.4725 114.205 65.0606 114.205V114.205Z" fill="#2F2E41"/>
<path d="M83.7003 18.7317V17.2576C83.7003 14.7358 84.7963 12.3173 86.7473 10.5341C88.6983 8.75092 91.3444 7.74915 94.1035 7.74915H94.1035C96.8626 7.74915 99.5087 8.75092 101.46 10.5341C103.411 12.3173 104.507 14.7358 104.507 17.2576V18.7317C104.507 20.5498 103.717 22.2933 102.31 23.5789C100.904 24.8644 98.9959 25.5866 97.0067 25.5866H91.2003C90.2154 25.5866 89.2401 25.4093 88.3302 25.0648C87.4202 24.7204 86.5934 24.2154 85.897 23.5789C85.2005 22.9424 84.6481 22.1867 84.2712 21.355C83.8943 20.5233 83.7003 19.6319 83.7003 18.7317V18.7317Z" fill="#2F2E41"/>
<path d="M94.1035 26.0938C98.4792 26.0938 102.026 22.8517 102.026 18.8524C102.026 14.8531 98.4792 11.611 94.1035 11.611C89.7278 11.611 86.1806 14.8531 86.1806 18.8524C86.1806 22.8517 89.7278 26.0938 94.1035 26.0938Z" fill="#FFB8B8"/>
<path d="M51.0079 43.7403C51.3294 43.4628 51.7136 43.2531 52.1334 43.126C52.5532 42.9989 52.9983 42.9574 53.4375 43.0046C53.8767 43.0517 54.2992 43.1863 54.6754 43.3989C55.0515 43.6114 55.372 43.8968 55.6145 44.2348L62.4063 43.0606L64.1937 46.6589L54.5768 48.194C53.9285 48.5286 53.1685 48.6342 52.4407 48.4908C51.7129 48.3474 51.0679 47.965 50.628 47.416C50.1881 46.867 49.9838 46.1896 50.0538 45.5121C50.1238 44.8347 50.4633 44.2042 51.0079 43.7402V43.7403Z" fill="#FFB8B8"/>
<path d="M87.9266 30.6543L88.0155 30.7773L76.8781 37.4831L58.0851 42.968C57.836 43.0412 57.6223 43.191 57.4804 43.392C57.3386 43.5929 57.2773 43.8326 57.307 44.0702L57.717 47.2976C57.7352 47.4405 57.7858 47.5783 57.8657 47.7022C57.9455 47.8261 58.0528 47.9334 58.1807 48.0172C58.3086 48.101 58.4542 48.1594 58.6082 48.1888C58.7622 48.2181 58.9213 48.2177 59.0751 48.1876L76.7621 44.7225C77.6181 44.5557 78.4275 44.2301 79.14 43.7656L91.6523 35.6291C92.1059 35.3325 92.4678 34.9337 92.7029 34.4714C92.9379 34.0092 93.0381 33.4992 92.9937 32.9911C92.9478 32.4822 92.7578 31.9931 92.4423 31.5718C92.1269 31.1504 91.6968 30.8114 91.1945 30.588C90.6922 30.3647 90.135 30.2647 89.5776 30.2978C89.0201 30.331 88.4818 30.4963 88.0154 30.7773L87.9266 30.6543Z" fill="#CCCCCC"/>
<path d="M105.437 111.479C105.153 111.479 104.877 111.404 104.639 111.263C104.402 111.121 104.216 110.92 104.102 110.683L87.1954 72.5016C87.1559 72.4188 87.0896 72.349 87.0054 72.3017C86.9213 72.2543 86.8233 72.2317 86.7246 72.2367C86.6259 72.2418 86.5313 72.2744 86.4535 72.3301C86.3757 72.3858 86.3184 72.4619 86.2894 72.5483L72.4963 109.719C72.4381 109.892 72.3418 110.052 72.2133 110.19C72.0848 110.328 71.9268 110.44 71.7491 110.52C71.5714 110.6 71.3777 110.645 71.1799 110.654C70.9822 110.663 70.7845 110.635 70.5991 110.572L65.9738 108.986C65.7227 108.901 65.5025 108.754 65.3375 108.561C65.1725 108.368 65.0693 108.137 65.0393 107.894C62.9585 91.3265 81.1038 49.508 81.2874 49.0877L81.3382 48.9712L97.8792 52.3154L97.9136 52.3497C104.513 58.9298 109.937 100.432 110.958 108.685C110.996 108.983 110.922 109.284 110.747 109.538C110.573 109.793 110.309 109.985 109.999 110.084L105.917 111.404C105.762 111.454 105.6 111.479 105.437 111.479Z" fill="#2F2E41"/>
<path d="M91.1847 53.6615C87.1771 53.6615 82.7091 52.9312 81.3338 49.9169L81.3021 49.8476L81.3449 49.7834C82.4304 48.1555 83.8652 45.3785 83.094 44.8572C81.5749 43.8306 80.8378 42.1418 80.9032 39.8375C81.0453 34.8354 84.7743 30.3943 90.1825 28.7864H90.1826C91.6922 28.3449 93.2284 27.9834 94.7835 27.7037C95.9173 27.4946 97.0877 27.5176 98.2105 27.771C99.3334 28.0245 100.381 28.5021 101.278 29.1695C102.186 29.8413 102.92 30.6887 103.428 31.6506C103.935 32.6126 104.203 33.6653 104.212 34.7332C104.269 40.0788 103.368 47.5241 98.7566 52.6356C98.5404 52.8728 98.2396 53.0326 97.9072 53.0871C95.6885 53.4539 93.4394 53.6461 91.1847 53.6615Z" fill="#CCCCCC"/>
<path d="M89.6939 53.4613C89.912 52.7463 90.4301 52.1388 91.1355 51.7709C91.8409 51.403 92.6767 51.3044 93.4612 51.4965C93.6213 51.5374 93.7775 51.5903 93.9282 51.6546L99.0852 47.3651L102.672 49.5735L95.2969 55.5383C94.9639 56.087 94.4396 56.5183 93.8075 56.7633C93.1755 57.0083 92.4719 57.0531 91.8087 56.8906C91.4225 56.7939 91.061 56.6283 90.7451 56.4032C90.4293 56.1781 90.1655 55.898 89.9688 55.5791C89.7721 55.2602 89.6466 54.9089 89.5994 54.5454C89.5522 54.1819 89.5844 53.8134 89.6939 53.4613V53.4613Z" fill="#FFB8B8"/>
<path d="M98.2683 53.5158C97.9337 53.516 97.6093 53.4103 97.3504 53.2165L95.3167 51.6976C95.1472 51.571 95.0112 51.4109 94.9189 51.2295C94.8267 51.048 94.7805 50.8498 94.7839 50.6498C94.7873 50.4497 94.8401 50.2529 94.9385 50.0741C95.0369 49.8954 95.1782 49.7393 95.3519 49.6175L103.881 43.6383C103.983 43.5671 104.049 43.4623 104.066 43.3467C104.083 43.2311 104.05 43.1139 103.973 43.0207L98.7083 36.6593C98.0967 35.9227 97.7899 35.0121 97.8423 34.0886C97.8947 33.1651 98.3029 32.2883 98.9946 31.6135V31.6135C99.7231 30.8943 100.721 30.4518 101.79 30.3736C102.859 30.2955 103.92 30.5875 104.765 31.1916L104.798 31.2238L110.296 38.4184C110.89 38.8444 111.369 39.3902 111.694 40.0133C112.02 40.6363 112.183 41.3197 112.172 42.0101C112.161 42.7004 111.975 43.3791 111.629 43.993C111.284 44.6069 110.787 45.1395 110.179 45.5491L99.1324 53.2557C98.8822 53.4247 98.5794 53.5158 98.2683 53.5158Z" fill="#CCCCCC"/>
<path d="M87.0856 16.8153V13.2224L94.1035 10.4215L100.795 13.2224V16.8153C100.795 16.9717 100.727 17.1217 100.606 17.2323C100.485 17.3429 100.321 17.405 100.15 17.405H87.7307C87.5596 17.405 87.3955 17.3429 87.2745 17.2323C87.1535 17.1217 87.0856 16.9717 87.0856 16.8153Z" fill="#2F2E41"/>
<path d="M93.7813 8.22577C92.7495 5.2071 94.9166 1.74757 98.1203 0.5527C101.324 -0.642167 105.157 0.193082 107.86 2.16718C110.564 4.14128 112.241 7.09811 113.129 10.1546C114.018 13.2111 114.187 16.3982 114.351 19.5573C118.287 20.2181 120.965 24.4852 119.601 27.9242C118.238 31.3631 113.191 33.0716 109.705 31.2742C106.22 29.4767 105.21 24.6449 107.726 21.8C108.916 20.4539 109.581 18.7833 109.615 17.0528C109.649 15.3223 109.051 13.6308 107.914 12.2462C106.778 10.8617 105.169 9.86323 103.342 9.40899C101.514 8.95474 99.5734 9.07069 97.8263 9.73845C95.8864 10.4799 93.4523 8.5534 93.7813 8.22577Z" fill="#2F2E41"/>
<path d="M49.553 29.8026C44.8403 29.7744 40.1865 28.8428 35.8923 27.0681C35.6366 26.964 35.4197 26.7941 35.2678 26.5793C35.1159 26.3644 35.0357 26.1139 35.0368 25.8581V15.1208C35.0373 14.7691 35.1903 14.4318 35.4625 14.1831C35.7346 13.9344 36.1036 13.7945 36.4884 13.7941H62.6175C63.0023 13.7945 63.3713 13.9344 63.6434 14.1831C63.9156 14.4318 64.0686 14.7691 64.0691 15.1208V25.8581C64.0702 26.1139 63.99 26.3645 63.8381 26.5793C63.6862 26.7941 63.4693 26.964 63.2136 27.0681C58.9194 28.8428 54.2656 29.7744 49.553 29.8026V29.8026Z" fill="#CDB536"/>
<path d="M49.5494 21.1041C49.3557 21.1043 49.1639 21.0691 48.9853 21.0005L28.2653 13.0106C27.9981 12.9076 27.7708 12.7338 27.6127 12.5116C27.4546 12.2894 27.3729 12.029 27.3782 11.764C27.3835 11.4989 27.4756 11.2415 27.6425 11.0247C27.8094 10.8079 28.0435 10.6419 28.3147 10.5478L49.0349 3.3634C49.3687 3.24715 49.7377 3.24787 50.0708 3.36542L70.5135 10.5498C70.7831 10.6446 71.0156 10.8107 71.1813 11.027C71.3471 11.2432 71.4385 11.4997 71.4438 11.7637C71.4491 12.0277 71.3682 12.2871 71.2113 12.5088C71.0544 12.7305 70.8287 12.9043 70.5632 13.0081L50.1203 20.9979C49.9398 21.0682 49.7456 21.1043 49.5494 21.1041V21.1041Z" fill="#CDB536"/>
<path d="M37.4562 27.7988C38.5251 27.7988 39.3917 27.0067 39.3917 26.0297C39.3917 25.0528 38.5251 24.2607 37.4562 24.2607C36.3872 24.2607 35.5207 25.0528 35.5207 26.0297C35.5207 27.0067 36.3872 27.7988 37.4562 27.7988Z" fill="#3F3D56"/>
<path opacity="0.2" d="M70.6338 11.8741L50.1909 19.8638C50.0315 19.9261 49.86 19.9584 49.6867 19.9588C49.5134 19.9592 49.3417 19.9276 49.182 19.8661L28.462 11.8764C28.2018 11.7785 27.9847 11.6041 27.8451 11.3808C27.7537 11.5256 27.6971 11.6865 27.679 11.8528C27.6609 12.0191 27.6817 12.1871 27.74 12.3455C27.7984 12.5039 27.8929 12.6492 28.0174 12.7716C28.1419 12.8941 28.2935 12.9909 28.462 13.0557L49.182 21.0454C49.3417 21.107 49.5134 21.1385 49.6867 21.1381C49.86 21.1377 50.0315 21.1054 50.1909 21.0432L70.6338 13.0534C70.8015 12.988 70.9521 12.8909 71.0758 12.7683C71.1994 12.6458 71.2932 12.5008 71.3509 12.3427C71.4087 12.1846 71.4291 12.0171 71.4108 11.8513C71.3925 11.6855 71.336 11.5251 71.2449 11.3807C71.1063 11.6022 70.8914 11.7757 70.6338 11.8741V11.8741Z" fill="black"/>
<path d="M37.6188 26.0228C37.7044 26.0228 37.7864 25.9917 37.8469 25.9364C37.9074 25.8811 37.9414 25.8061 37.9414 25.7279V15.8624L48.5805 12.3199C48.666 12.3211 48.7486 12.2911 48.81 12.2366C48.8714 12.1822 48.9066 12.1076 48.9079 12.0294C48.9092 11.9513 48.8764 11.8758 48.8168 11.8197C48.7572 11.7636 48.6757 11.7314 48.5901 11.7302L37.951 15.2727C37.8654 15.2709 37.7803 15.285 37.7008 15.3142C37.6213 15.3433 37.5491 15.3869 37.4886 15.4423C37.4275 15.497 37.379 15.5624 37.3459 15.6345C37.3129 15.7067 37.296 15.7841 37.2962 15.8624V25.7279C37.2962 25.8061 37.3302 25.8811 37.3907 25.9364C37.4512 25.9917 37.5333 26.0228 37.6188 26.0228V26.0228Z" fill="#3F3D56"/>
</g>
<defs>
<clipPath id="clip0">
<rect width="240" height="159" fill="white"/>
</clipPath>
</defs>
</svg>
