<svg width="250" height="159" viewBox="0 0 250 159" fill="none" xmlns="http://www.w3.org/2000/svg">
<path d="M242.628 153.986H6.98175V154.467H242.628V153.986Z" fill="#3F3D56"/>
<path d="M25.5159 66.729L25.3184 67.172L242.357 154.187L242.555 153.744L25.5159 66.729Z" fill="#3F3D56"/>
<path d="M242.628 66.6888H6.98175V67.1698H242.628V66.6888Z" fill="#3F3D56"/>
<path d="M210.668 77.1501C210.7 87.3266 208.617 97.4093 204.538 106.822C200.458 116.235 194.462 124.793 186.892 132.008C186.058 132.804 185.205 133.582 184.333 134.341C183.283 135.26 182.206 136.15 181.101 137.013C180.891 137.179 180.68 137.342 180.467 137.503C176.105 140.855 171.381 143.759 166.374 146.168C166.077 146.31 165.781 146.452 165.481 146.591C165.007 146.813 164.528 147.029 164.048 147.241C146.301 155.07 126.119 156.369 107.419 150.884C74.68 141.25 50.8643 111.884 50.8643 77.1501C50.8643 34.5812 86.6374 0.0733643 130.766 0.0733643C174.894 0.0733643 210.668 34.5812 210.668 77.1501Z" fill="#D6CD20"/>
<path d="M148.556 60.9812L148.619 60.9789L148.369 60.458C148.088 59.7201 147.745 59.0051 147.342 58.3198L140.003 43.0414C139.768 42.5538 139.389 42.1416 138.911 41.8555C138.433 41.5693 137.878 41.4216 137.313 41.4306L128.018 41.5774C127.417 41.5869 126.834 41.773 126.349 42.1102C125.865 42.4473 125.502 42.9188 125.312 43.4595L119.469 60.0984C119.277 60.5644 119.11 61.0395 118.969 61.5217L118.771 62.0867L118.817 62.0849C118.276 64.2792 118.276 66.5624 118.819 68.7565C119.361 70.9506 120.43 72.9964 121.943 74.7343C123.456 76.4723 125.372 77.8554 127.542 78.776C129.711 79.6965 132.076 80.1296 134.451 80.0415C136.826 79.9533 139.148 79.3463 141.235 78.2678C143.322 77.1893 145.118 75.6683 146.483 73.8236C147.848 71.9788 148.745 69.8601 149.105 67.6325C149.465 65.4049 149.277 63.1287 148.556 60.9812H148.556Z" fill="#3F3D56"/>
<path d="M131.234 45.3137L128.309 60.4727L128.639 60.5299L131.564 45.3709L131.234 45.3137Z" fill="#D6CD20"/>
<path d="M134.748 45.2579L134.42 45.3254L137.873 60.3843L138.201 60.3167L134.748 45.2579Z" fill="#D6CD20"/>
<path d="M127.005 34.1161L138.915 33.928C139.004 33.9266 139.09 33.9588 139.154 34.0174C139.218 34.0761 139.255 34.1565 139.256 34.2408C139.258 34.3252 139.224 34.4066 139.162 34.4673C139.1 34.5279 139.015 34.5628 138.926 34.5642L127.016 34.7523C126.972 34.753 126.928 34.7455 126.887 34.7301C126.846 34.7148 126.809 34.6919 126.777 34.6629C126.745 34.6339 126.72 34.5992 126.703 34.5609C126.685 34.5225 126.676 34.4813 126.675 34.4395C126.674 34.3978 126.682 34.3563 126.698 34.3174C126.715 34.2785 126.739 34.2431 126.769 34.2131C126.8 34.183 126.836 34.159 126.877 34.1424C126.917 34.1258 126.961 34.1168 127.005 34.1161V34.1161Z" fill="#3F3D56"/>
<path d="M127.131 36.5005L139.041 36.3124C139.13 36.311 139.216 36.3432 139.28 36.4018C139.344 36.4605 139.381 36.5409 139.382 36.6252C139.384 36.7096 139.35 36.791 139.288 36.8517C139.226 36.9123 139.141 36.9472 139.052 36.9486L127.142 37.1367C127.053 37.1381 126.967 37.106 126.903 37.0473C126.839 36.9886 126.802 36.9083 126.801 36.8239C126.799 36.7396 126.833 36.6581 126.895 36.5975C126.957 36.5368 127.042 36.5019 127.131 36.5005Z" fill="#3F3D56"/>
<path d="M127.256 38.8848L139.167 38.6967C139.256 38.6953 139.342 38.7275 139.406 38.7861C139.47 38.8448 139.506 38.9251 139.508 39.0095C139.509 39.0938 139.475 39.1753 139.414 39.236C139.352 39.2966 139.267 39.3315 139.178 39.3329L127.268 39.521C127.179 39.5224 127.093 39.4902 127.029 39.4316C126.965 39.3729 126.928 39.2926 126.927 39.2082C126.925 39.1238 126.959 39.0424 127.021 38.9817C127.083 38.9211 127.167 38.8862 127.256 38.8848V38.8848Z" fill="#3F3D56"/>
<path d="M132.92 31.7533C130.558 31.7906 128.664 33.0692 128.691 34.6091L137.247 34.474C137.22 32.934 135.283 31.716 132.92 31.7533Z" fill="#3F3D56"/>
<path d="M134.237 62.7114C134.703 62.7414 135.146 62.9205 135.491 63.2197C135.58 63.2892 135.667 63.3621 135.754 63.4351C136.03 63.7082 136.368 63.9179 136.742 64.0483C137.562 64.2604 138.371 63.6459 139.054 63.0167L139.288 63.2448C138.537 63.9367 137.637 64.6095 136.654 64.3553C136.229 64.2135 135.845 63.9801 135.532 63.6735C135.447 63.6026 135.363 63.532 135.277 63.4645C134.997 63.244 134.455 62.901 133.974 63.0789C133.774 63.1712 133.596 63.3012 133.451 63.4609C133.339 63.5729 133.218 63.6764 133.089 63.7705C132.824 63.9483 132.51 64.0481 132.186 64.0573C131.862 64.0664 131.543 63.9845 131.268 63.8218C131.169 63.7593 131.074 63.6917 130.983 63.6192C130.833 63.4789 130.647 63.3785 130.444 63.3284C130.159 63.2905 129.9 63.4835 129.625 63.6876C129.366 63.9269 129.034 64.0833 128.676 64.1348C128.664 64.1354 128.651 64.1358 128.639 64.136C127.97 64.1466 127.546 63.5125 127.284 63.0304L127.582 62.8847C127.939 63.5399 128.282 63.8387 128.658 63.8171C128.945 63.7648 129.21 63.6326 129.418 63.4373C129.735 63.2011 130.064 62.9569 130.49 63.0134C130.755 63.0681 130.999 63.1923 131.194 63.3719C131.275 63.437 131.361 63.4978 131.449 63.5541C131.668 63.6809 131.92 63.7445 132.176 63.7373C132.432 63.7301 132.681 63.6523 132.891 63.5134C133.006 63.429 133.114 63.3363 133.214 63.2361C133.39 63.044 133.608 62.8894 133.852 62.7825C133.974 62.7372 134.105 62.7131 134.237 62.7114V62.7114Z" fill="#D6CD20"/>
<path d="M133.298 0H132.95V31.7402H133.298V0Z" fill="#3F3D56"/>
<path d="M238.543 54.9927C236.417 62.4444 229.134 67.0594 229.134 67.0594C229.134 67.0594 225.299 59.5929 227.425 52.1412C229.551 44.6895 236.834 40.0745 236.834 40.0745C236.834 40.0745 240.67 47.541 238.543 54.9927Z" fill="#D6CD20"/>
<path d="M219.201 54.9927C221.327 62.4444 228.61 67.0594 228.61 67.0594C228.61 67.0594 232.445 59.5929 230.319 52.1412C228.193 44.6895 220.91 40.0745 220.91 40.0745C220.91 40.0745 217.075 47.541 219.201 54.9927Z" fill="#D6CD20"/>
<path d="M222.325 53.3913C228.159 58.7759 228.872 67.0533 228.872 67.0533C228.872 67.0533 220.125 66.6006 214.291 61.2159C208.457 55.8313 207.744 47.5538 207.744 47.5538C207.744 47.5538 216.491 48.0066 222.325 53.3913Z" fill="#3F3D56"/>
<path d="M235.419 53.3913C229.585 58.7759 228.872 67.0533 228.872 67.0533C228.872 67.0533 237.619 66.6006 243.453 61.2159C249.287 55.8313 250 47.5538 250 47.5538C250 47.5538 241.253 48.0066 235.419 53.3913Z" fill="#3F3D56"/>
<path d="M30.799 142.05C28.6729 149.502 21.3902 154.117 21.3902 154.117C21.3902 154.117 17.5547 146.65 19.6809 139.198C21.8071 131.747 29.0898 127.132 29.0898 127.132C29.0898 127.132 32.9252 134.598 30.799 142.05Z" fill="#D6CD20"/>
<path d="M11.4567 142.05C13.5828 149.502 20.8655 154.117 20.8655 154.117C20.8655 154.117 24.701 146.65 22.5748 139.198C20.4486 131.747 13.1659 127.132 13.1659 127.132C13.1659 127.132 9.33046 134.598 11.4567 142.05Z" fill="#D6CD20"/>
<path d="M14.5809 140.448C20.4152 145.833 21.1279 154.11 21.1279 154.11C21.1279 154.11 12.3812 153.658 6.54691 148.273C0.712615 142.888 0 134.611 0 134.611C0 134.611 8.74666 135.064 14.5809 140.448Z" fill="#3F3D56"/>
<path d="M27.6748 140.448C21.8405 145.833 21.1279 154.11 21.1279 154.11C21.1279 154.11 29.8745 153.658 35.7088 148.273C41.5431 142.888 42.2557 134.611 42.2557 134.611C42.2557 134.611 33.5091 135.064 27.6748 140.448Z" fill="#3F3D56"/>
<path d="M170.036 73.2104C172.731 73.2104 174.915 71.1394 174.915 68.5848C174.915 66.0301 172.731 63.9591 170.036 63.9591C167.342 63.9591 165.157 66.0301 165.157 68.5848C165.157 71.1394 167.342 73.2104 170.036 73.2104Z" fill="#2F2E41"/>
<path d="M164.809 66.6023C164.809 65.4615 165.254 64.3609 166.058 63.5121C166.862 62.6634 167.969 62.1263 169.165 62.004C168.484 61.9335 167.794 61.9998 167.142 62.1987C166.489 62.3976 165.888 62.7247 165.378 63.1585C164.868 63.5923 164.46 64.1232 164.18 64.7166C163.901 65.31 163.756 65.9525 163.756 66.6023C163.756 67.2522 163.901 67.8947 164.18 68.4881C164.46 69.0815 164.868 69.6124 165.378 70.0462C165.888 70.48 166.489 70.8071 167.142 71.006C167.794 71.2049 168.484 71.2712 169.165 71.2007C167.969 71.0784 166.862 70.5413 166.058 69.6926C165.254 68.8438 164.809 67.7432 164.809 66.6023V66.6023Z" fill="#2F2E41"/>
<path d="M165.157 68.5848C165.157 68.5848 164.4 71.8889 169.135 73.2105L165.157 68.5848Z" fill="#D6CD20"/>
<path d="M172.054 100.004C181.1 100.004 188.433 93.0518 188.433 84.4754C188.433 75.899 181.1 68.9464 172.054 68.9464C163.008 68.9464 155.675 75.899 155.675 84.4754C155.675 93.0518 163.008 100.004 172.054 100.004Z" fill="#2F2E41"/>
<path d="M181.101 137.013C180.891 137.179 180.68 137.342 180.467 137.503C176.105 140.855 171.381 143.759 166.374 146.168C166.077 146.31 165.781 146.452 165.481 146.591C165.007 146.813 164.528 147.029 164.048 147.241L155.652 144.588L155.748 142.681V142.674L156.114 135.401L156.238 132.915L181.101 137.013Z" fill="#A0616A"/>
<path d="M165.481 146.591C165.007 146.813 164.527 147.029 164.048 147.241C160.768 148.694 157.386 149.93 153.925 150.937C153.907 150.889 153.897 150.839 153.894 150.788L155.652 142.642L155.748 142.681L165.481 146.591Z" fill="#2F2E41"/>
<path d="M167.966 100.951C173.956 100.951 178.812 96.3469 178.812 90.6673C178.812 84.9877 173.956 80.3835 167.966 80.3835C161.975 80.3835 157.119 84.9877 157.119 90.6673C157.119 96.3469 161.975 100.951 167.966 100.951Z" fill="#A0616A"/>
<path d="M176.76 91.2231C176.76 91.2231 178.519 99.5613 181.744 101.507L163.861 121.518L157.119 115.404L162.102 107.066C162.102 107.066 167.672 104.008 165.913 99.8393L176.76 91.2231Z" fill="#A0616A"/>
<path d="M197.982 118.839C194.804 123.599 191.085 128.015 186.892 132.008C186.712 128.28 186.322 125.207 185.556 124.298C185.554 124.298 185.552 124.297 185.551 124.296L176.173 121.518C176.173 121.518 178.225 103.173 183.209 102.341C183.209 102.341 183.932 102.481 185.056 102.803C188.678 103.837 196.455 106.752 197.574 112.901C197.892 114.865 198.029 116.852 197.982 118.839V118.839Z" fill="#A0616A"/>
<path d="M162.102 107.066C162.102 107.066 153.308 106.788 147.738 113.458C142.168 120.129 128.683 125.132 128.683 125.132L94.9696 137.639C94.9696 137.639 88.8134 127.355 85.0023 130.968C81.1913 134.582 92.0381 143.754 97.0217 142.642C102.005 141.53 132.2 132.914 132.2 132.914L156.239 122.63L162.102 107.066Z" fill="#A0616A"/>
<path d="M185.556 124.298L184.333 134.341C183.283 135.259 182.206 136.15 181.101 137.013C180.891 137.179 180.68 137.342 180.467 137.503C172.003 135.043 158.739 135.317 156.114 135.401C155.814 135.409 155.652 135.416 155.652 135.416L155.36 129.579C152.547 128.692 151.624 126.751 151.599 124.615C151.556 120.744 154.48 116.237 154.48 116.237C155.005 115.739 158.929 108.685 159.741 107.223C159.835 107.052 159.888 106.959 159.888 106.959L163.406 106.127C163.406 106.127 163.396 106.153 163.376 106.201C163.061 107.036 160.327 114.585 165.035 114.847C169.667 115.106 179.742 102.774 181.129 101.045C181.233 100.915 181.289 100.845 181.289 100.845L185.102 102.791C185.086 102.796 185.071 102.798 185.056 102.803C182.727 103.416 180.571 108.734 180.571 108.734C174.491 118.892 185.284 124.168 185.55 124.296C185.552 124.297 185.554 124.298 185.556 124.298Z" fill="#D0CDE1"/>
<path d="M168.555 78.5962C162.781 78.5962 158.1 81.1849 158.1 84.3783C158.1 85.8071 159.041 87.113 160.594 88.1218L162.607 86.7392L162.059 88.9052C162.286 89.005 162.518 89.1016 162.76 89.1909L165.767 85.8651V89.9508C166.689 90.0909 167.621 90.1609 168.555 90.1604C174.329 90.1604 179.01 87.5716 179.01 84.3783C179.01 81.1849 174.329 78.5962 168.555 78.5962Z" fill="#2F2E41"/>
<path d="M189.971 80.4369C192.665 80.4369 194.85 78.3659 194.85 75.8112C194.85 73.2565 192.665 71.1855 189.971 71.1855C187.276 71.1855 185.092 73.2565 185.092 75.8112C185.092 78.3659 187.276 80.4369 189.971 80.4369Z" fill="#2F2E41"/>
<path d="M184.743 73.8288C184.744 72.6879 185.189 71.5874 185.993 70.7386C186.797 69.8898 187.903 69.3527 189.1 69.2305C188.926 69.2126 188.752 69.2035 188.577 69.2031C187.914 69.2022 187.257 69.3296 186.647 69.5774C186.038 69.8252 185.488 70.1883 185.031 70.6445C184.574 71.1007 184.221 71.6403 183.991 72.2305C183.762 72.8207 183.662 73.449 183.698 74.077C183.734 74.705 183.904 75.3195 184.198 75.883C184.493 76.4465 184.906 76.9471 185.411 77.3543C185.917 77.7614 186.505 78.0666 187.139 78.251C187.773 78.4355 188.44 78.4954 189.1 78.4271C187.903 78.3049 186.797 77.7678 185.993 76.919C185.189 76.0702 184.744 74.9697 184.743 73.8288V73.8288Z" fill="#2F2E41"/>
<path d="M185.092 75.8113C185.092 75.8113 184.334 79.1153 189.069 80.4369L185.092 75.8113Z" fill="#D6CD20"/>
<path d="M179.252 91.6401C179.72 91.6401 180.099 90.8312 180.099 89.8335C180.099 88.8357 179.72 88.0269 179.252 88.0269C178.784 88.0269 178.405 88.8357 178.405 89.8335C178.405 90.8312 178.784 91.6401 179.252 91.6401Z" fill="#A0616A"/>
<path d="M85.7817 96.8225L72.9272 99.7752L72.8853 99.7847L71.488 100.984L71.0858 101.329L70.2236 101.181L68.6973 100.919L69.7609 97.5157L69.9603 91.0241L69.2291 87.0535L73.2842 84.4064C73.2842 84.4064 81.1948 83.9652 85.7817 96.8225Z" fill="#D0CDE1"/>
<path opacity="0.1" d="M72.9272 99.7752C72.753 100.128 73.1179 99.895 72.9185 100.257L71.0572 100.825L70.2236 101.181L68.6973 100.919L69.7609 97.5158L69.9603 91.0241L69.2291 87.0535L73.2841 84.4064C73.2841 84.4064 77.6363 90.2501 72.9272 99.7752Z" fill="black"/>
<path d="M100.938 87.4946C100.938 87.4946 84.0533 94.9317 77.2062 96.0661C70.3592 97.2006 70.9575 103.692 70.9575 103.692L109.314 98.0199C109.314 98.0199 107.985 92.1585 100.938 87.4946Z" fill="#D0CDE1"/>
<path d="M68.3649 86.2342C68.3649 86.2342 71.2899 92.9779 68.0325 101.36L71.8217 102.999L73.2842 101.36L73.3174 101.203L69.2955 100.856C69.2955 100.856 72.6194 92.4107 69.8938 86.5493C69.8938 86.5493 69.2956 85.2888 68.3649 86.2342Z" fill="#D6CD20"/>
<path d="M124.139 136.214C109.181 133.062 95.2546 139.585 95.2546 139.585L95.2167 139.553L89.6706 134.859L67.9993 101.329L73.2841 101.36C87.9755 93.0409 108.65 94.1754 108.65 94.1754C117.558 103.755 124.139 136.214 124.139 136.214Z" fill="#3F3D56"/>
<path opacity="0.1" d="M95.2168 139.553L89.6706 134.859L67.9993 101.329L73.2841 101.36C73.2841 101.36 94.3479 127.736 95.2168 139.553Z" fill="black"/>
<path d="M97.6508 113.392C102.179 112.075 105.134 108.795 104.251 106.067C103.368 103.338 98.9818 102.193 94.4539 103.51C89.926 104.827 86.9711 108.106 87.8539 110.835C88.7367 113.564 93.1229 114.708 97.6508 113.392Z" fill="#D0CDE1"/>
<path d="M7.04996 71.2215C9.71168 71.2215 11.8694 69.1757 11.8694 66.6522C11.8694 64.1286 9.71168 62.0829 7.04996 62.0829C4.38825 62.0829 2.2305 64.1286 2.2305 66.6522C2.2305 69.1757 4.38825 71.2215 7.04996 71.2215Z" fill="#3F3D56"/>
<path d="M242.443 159C245.104 159 247.262 156.954 247.262 154.431C247.262 151.907 245.104 149.861 242.443 149.861C239.781 149.861 237.623 151.907 237.623 154.431C237.623 156.954 239.781 159 242.443 159Z" fill="#3F3D56"/>
<path d="M28.1034 70.7404C30.2048 70.7404 31.9082 69.1254 31.9082 67.1331C31.9082 65.1408 30.2048 63.5258 28.1034 63.5258C26.002 63.5258 24.2986 65.1408 24.2986 67.1331C24.2986 69.1254 26.002 70.7404 28.1034 70.7404Z" fill="#D6CD20"/>
<path d="M242.443 70.7404C244.544 70.7404 246.248 69.1254 246.248 67.1331C246.248 65.1408 244.544 63.5258 242.443 63.5258C240.341 63.5258 238.638 65.1408 238.638 67.1331C238.638 69.1254 240.341 70.7404 242.443 70.7404Z" fill="#D6CD20"/>
<path d="M7.04996 157.557C9.15131 157.557 10.8548 155.942 10.8548 153.95C10.8548 151.957 9.15131 150.342 7.04996 150.342C4.9486 150.342 3.24512 151.957 3.24512 153.95C3.24512 155.942 4.9486 157.557 7.04996 157.557Z" fill="#D6CD20"/>
</svg>
