<svg width="199" height="35" viewBox="0 0 199 35" fill="none" xmlns="http://www.w3.org/2000/svg">
<path d="M15.4375 15.1699H4.3457V24.2402H17.2305V27H0.970703V1.40625H17.0547V4.18359H4.3457V12.4102H15.4375V15.1699ZM27.6895 17.4551H19.1113V14.8008H27.6895V17.4551ZM34.4043 27H31.1523V0H34.4043V27ZM43.1582 27H39.9062V7.98047H43.1582V27ZM39.6426 2.93555C39.6426 2.4082 39.8008 1.96289 40.1172 1.59961C40.4453 1.23633 40.9258 1.05469 41.5586 1.05469C42.1914 1.05469 42.6719 1.23633 43 1.59961C43.3281 1.96289 43.4922 2.4082 43.4922 2.93555C43.4922 3.46289 43.3281 3.90234 43 4.25391C42.6719 4.60547 42.1914 4.78125 41.5586 4.78125C40.9258 4.78125 40.4453 4.60547 40.1172 4.25391C39.8008 3.90234 39.6426 3.46289 39.6426 2.93555ZM51.4551 7.98047L51.5605 10.3711C53.0137 8.54297 54.9121 7.62891 57.2559 7.62891C61.2754 7.62891 63.3027 9.89648 63.3379 14.4316V27H60.0859V14.4141C60.0742 13.043 59.7578 12.0293 59.1367 11.373C58.5273 10.7168 57.5723 10.3887 56.2715 10.3887C55.2168 10.3887 54.291 10.6699 53.4941 11.2324C52.6973 11.7949 52.0762 12.5332 51.6309 13.4473V27H48.3789V7.98047H51.4551ZM67.4688 17.332C67.4688 14.3672 68.1543 12.0117 69.5254 10.2656C70.8965 8.50781 72.7129 7.62891 74.9746 7.62891C77.2949 7.62891 79.1055 8.44922 80.4062 10.0898L80.5645 7.98047H83.5352V26.543C83.5352 29.0039 82.8027 30.9434 81.3379 32.3613C79.8848 33.7793 77.9277 34.4883 75.4668 34.4883C74.0957 34.4883 72.7539 34.1953 71.4414 33.6094C70.1289 33.0234 69.127 32.2207 68.4355 31.2012L70.123 29.25C71.5176 30.9727 73.2227 31.834 75.2383 31.834C76.8203 31.834 78.0508 31.3887 78.9297 30.498C79.8203 29.6074 80.2656 28.3535 80.2656 26.7363V25.1016C78.9648 26.6016 77.1895 27.3516 74.9395 27.3516C72.7129 27.3516 70.9082 26.4551 69.5254 24.6621C68.1543 22.8691 67.4688 20.4258 67.4688 17.332ZM70.7383 17.7012C70.7383 19.8457 71.1777 21.5332 72.0566 22.7637C72.9355 23.9824 74.166 24.5918 75.748 24.5918C77.7988 24.5918 79.3047 23.6602 80.2656 21.7969V13.1133C79.2695 11.2969 77.7754 10.3887 75.7832 10.3887C74.2012 10.3887 72.9648 11.0039 72.0742 12.2344C71.1836 13.4648 70.7383 15.2871 70.7383 17.7012ZM100.199 25.1191C98.9336 26.6074 97.0762 27.3516 94.627 27.3516C92.5996 27.3516 91.0527 26.7656 89.9863 25.5938C88.9316 24.4102 88.3984 22.6641 88.3867 20.3555V7.98047H91.6387V20.2676C91.6387 23.1504 92.8105 24.5918 95.1543 24.5918C97.6387 24.5918 99.291 23.666 100.111 21.8145V7.98047H103.363V27H100.27L100.199 25.1191ZM120.062 27C119.875 26.625 119.723 25.957 119.605 24.9961C118.094 26.5664 116.289 27.3516 114.191 27.3516C112.316 27.3516 110.775 26.8242 109.568 25.7695C108.373 24.7031 107.775 23.3555 107.775 21.7266C107.775 19.7461 108.525 18.2109 110.025 17.1211C111.537 16.0195 113.658 15.4688 116.389 15.4688H119.553V13.9746C119.553 12.8379 119.213 11.9355 118.533 11.2676C117.854 10.5879 116.852 10.248 115.527 10.248C114.367 10.248 113.395 10.541 112.609 11.127C111.824 11.7129 111.432 12.4219 111.432 13.2539H108.162C108.162 12.3047 108.496 11.3906 109.164 10.5117C109.844 9.62109 110.758 8.91797 111.906 8.40234C113.066 7.88672 114.338 7.62891 115.721 7.62891C117.912 7.62891 119.629 8.17969 120.871 9.28125C122.113 10.3711 122.758 11.877 122.805 13.7988V22.5527C122.805 24.2988 123.027 25.6875 123.473 26.7188V27H120.062ZM114.666 24.5215C115.686 24.5215 116.652 24.2578 117.566 23.7305C118.48 23.2031 119.143 22.5176 119.553 21.6738V17.7715H117.004C113.02 17.7715 111.027 18.9375 111.027 21.2695C111.027 22.2891 111.367 23.0859 112.047 23.6602C112.727 24.2344 113.6 24.5215 114.666 24.5215ZM157.012 27H153.619V15.1699H140.717V27H137.342V1.40625H140.717V12.4102H153.619V1.40625H157.012V27ZM174.238 25.1191C172.973 26.6074 171.115 27.3516 168.666 27.3516C166.639 27.3516 165.092 26.7656 164.025 25.5938C162.971 24.4102 162.438 22.6641 162.426 20.3555V7.98047H165.678V20.2676C165.678 23.1504 166.85 24.5918 169.193 24.5918C171.678 24.5918 173.33 23.666 174.15 21.8145V7.98047H177.402V27H174.309L174.238 25.1191ZM198.461 17.7012C198.461 20.6074 197.793 22.9453 196.457 24.7148C195.121 26.4727 193.328 27.3516 191.078 27.3516C188.676 27.3516 186.818 26.502 185.506 24.8027L185.348 27H182.359V0H185.611V10.0723C186.924 8.44336 188.734 7.62891 191.043 7.62891C193.352 7.62891 195.162 8.50195 196.475 10.248C197.799 11.9941 198.461 14.3848 198.461 17.4199V17.7012ZM195.209 17.332C195.209 15.1172 194.781 13.4062 193.926 12.1992C193.07 10.9922 191.84 10.3887 190.234 10.3887C188.09 10.3887 186.549 11.3848 185.611 13.377V21.6035C186.607 23.5957 188.16 24.5918 190.27 24.5918C191.828 24.5918 193.041 23.9883 193.908 22.7812C194.775 21.5742 195.209 19.7578 195.209 17.332Z" fill="#676767"/>
</svg>
