<svg width="254" height="171" viewBox="0 0 254 171" fill="none" xmlns="http://www.w3.org/2000/svg">
<path d="M246.51 165.608H7.09348V166.125H246.51V165.608Z" fill="#3F3D56"/>
<path d="M25.9242 71.7652L25.7234 72.2416L246.235 165.824L246.436 165.347L25.9242 71.7652Z" fill="#3F3D56"/>
<path d="M246.51 71.7219H7.09348V72.2392H246.51V71.7219Z" fill="#3F3D56"/>
<path d="M214.038 82.9727C214.071 93.9172 211.955 104.761 207.81 114.884C203.665 125.007 197.574 134.212 189.883 141.971C189.035 142.827 188.168 143.663 187.282 144.48C186.215 145.468 185.121 146.426 183.999 147.353C183.785 147.532 183.571 147.708 183.355 147.881C178.923 151.485 174.123 154.609 169.036 157.2C168.735 157.352 168.433 157.505 168.129 157.655C167.647 157.893 167.16 158.126 166.673 158.353C148.642 166.774 128.137 168.17 109.138 162.272C75.8749 151.91 51.6781 120.328 51.6781 82.9727C51.6781 37.191 88.0236 0.0788574 132.858 0.0788574C177.693 0.0788574 214.038 37.191 214.038 82.9727Z" fill="#53C634" fill-opacity="0.54"/>
<path d="M150.933 65.5835L150.997 65.581L150.743 65.0207C150.458 64.2272 150.109 63.4582 149.7 62.7212L142.243 46.2897C142.005 45.7653 141.619 45.322 141.134 45.0143C140.648 44.7065 140.084 44.5477 139.51 44.5573L130.066 44.7152C129.456 44.7254 128.863 44.9256 128.371 45.2882C127.878 45.6508 127.51 46.1579 127.317 46.7394L121.381 64.6341C121.185 65.1352 121.016 65.6461 120.873 66.1648L120.671 66.7724L120.718 66.7705C120.168 69.1304 120.169 71.5859 120.72 73.9456C121.27 76.3053 122.357 78.5055 123.894 80.3746C125.432 82.2437 127.378 83.7312 129.582 84.7213C131.787 85.7113 134.189 86.1771 136.602 86.0823C139.015 85.9874 141.374 85.3346 143.494 84.1747C145.615 83.0148 147.439 81.3791 148.827 79.3951C150.214 77.4111 151.125 75.1324 151.491 72.7367C151.856 70.341 151.665 67.893 150.933 65.5835H150.933Z" fill="#3F3D56"/>
<path d="M133.333 48.7336L130.362 65.0366L130.697 65.0982L133.669 48.7951L133.333 48.7336Z" fill="#53C634" fill-opacity="0.54"/>
<path d="M136.904 48.6735L136.571 48.7462L140.079 64.9415L140.412 64.8689L136.904 48.6735Z" fill="#53C634" fill-opacity="0.54"/>
<path d="M129.037 36.6909L141.138 36.4886C141.228 36.4871 141.316 36.5217 141.381 36.5847C141.446 36.6478 141.483 36.7342 141.484 36.825C141.486 36.9157 141.451 37.0033 141.389 37.0685C141.326 37.1338 141.24 37.1713 141.149 37.1728L129.048 37.3751C129.004 37.3758 128.959 37.3677 128.917 37.3512C128.876 37.3347 128.838 37.3101 128.806 37.2789C128.773 37.2477 128.748 37.2104 128.73 37.1692C128.712 37.1279 128.703 37.0836 128.702 37.0387C128.701 36.9938 128.709 36.9491 128.726 36.9073C128.742 36.8655 128.766 36.8274 128.798 36.7951C128.829 36.7628 128.866 36.737 128.907 36.7191C128.948 36.7012 128.992 36.6916 129.037 36.6909Z" fill="#3F3D56"/>
<path d="M129.165 39.2552L141.266 39.0529C141.356 39.0514 141.443 39.086 141.508 39.1491C141.573 39.2122 141.611 39.2986 141.612 39.3893C141.614 39.48 141.579 39.5676 141.516 39.6329C141.454 39.6981 141.367 39.7356 141.277 39.7371L129.176 39.9394C129.086 39.9409 128.998 39.9063 128.933 39.8432C128.868 39.7802 128.831 39.6937 128.83 39.603C128.828 39.5123 128.862 39.4247 128.925 39.3594C128.988 39.2942 129.074 39.2567 129.165 39.2552Z" fill="#3F3D56"/>
<path d="M129.293 41.8196L141.393 41.6172C141.484 41.6157 141.571 41.6503 141.636 41.7134C141.701 41.7765 141.739 41.8629 141.74 41.9536C141.742 42.0444 141.707 42.132 141.644 42.1972C141.581 42.2624 141.495 42.2999 141.405 42.3014L129.304 42.5037C129.214 42.5053 129.126 42.4707 129.061 42.4076C128.996 42.3445 128.959 42.2581 128.957 42.1673C128.956 42.0766 128.99 41.989 129.053 41.9238C129.116 41.8586 129.202 41.8211 129.293 41.8196Z" fill="#3F3D56"/>
<path d="M135.047 34.1497C132.647 34.1898 130.723 35.5649 130.751 37.2211L139.443 37.0757C139.415 35.4196 137.447 34.1096 135.047 34.1497Z" fill="#3F3D56"/>
<path d="M136.384 67.4443C136.859 67.4765 137.308 67.6692 137.659 67.991C137.749 68.0657 137.837 68.1441 137.926 68.2227C138.206 68.5163 138.55 68.7419 138.93 68.8821C139.763 69.1102 140.585 68.4493 141.279 67.7726L141.517 68.0179C140.754 68.7621 139.84 69.4857 138.84 69.2123C138.409 69.0598 138.019 68.8088 137.7 68.4791C137.614 68.4028 137.528 68.3268 137.441 68.2542C137.157 68.0171 136.606 67.6482 136.117 67.8395C135.914 67.9388 135.734 68.0787 135.586 68.2504C135.473 68.3708 135.349 68.4821 135.218 68.5833C134.95 68.7746 134.631 68.8819 134.301 68.8918C133.972 68.9016 133.647 68.8135 133.368 68.6385C133.268 68.5713 133.171 68.4986 133.078 68.4207C132.927 68.2697 132.738 68.1618 132.531 68.1079C132.241 68.0671 131.978 68.2747 131.699 68.4942C131.435 68.7516 131.098 68.9197 130.734 68.9751C130.722 68.9758 130.71 68.9762 130.697 68.9764C130.018 68.9878 129.587 68.3059 129.321 67.7874L129.624 67.6306C129.986 68.3354 130.335 68.6567 130.716 68.6334C131.009 68.5772 131.277 68.435 131.489 68.225C131.811 67.971 132.145 67.7084 132.578 67.769C132.848 67.828 133.095 67.9616 133.293 68.1547C133.376 68.2246 133.462 68.29 133.552 68.3506C133.774 68.4869 134.031 68.5554 134.291 68.5476C134.551 68.5399 134.804 68.4562 135.017 68.3069C135.134 68.2161 135.244 68.1163 135.345 68.0086C135.525 67.802 135.745 67.6358 135.993 67.5208C136.118 67.4721 136.251 67.4462 136.384 67.4443Z" fill="#53C634" fill-opacity="0.54"/>
<path d="M135.431 0H135.077V34.1357H135.431V0Z" fill="#3F3D56"/>
<path d="M242.36 59.1432C240.2 67.1573 232.801 72.1206 232.801 72.1206C232.801 72.1206 228.904 64.0905 231.064 56.0764C233.224 48.0623 240.623 43.099 240.623 43.099C240.623 43.099 244.52 51.1291 242.36 59.1432Z" fill="#53C634" fill-opacity="0.54"/>
<path d="M222.708 59.1432C224.868 67.1573 232.268 72.1206 232.268 72.1206C232.268 72.1206 236.164 64.0905 234.004 56.0764C231.844 48.0623 224.445 43.099 224.445 43.099C224.445 43.099 220.548 51.1291 222.708 59.1432Z" fill="#53C634" fill-opacity="0.54"/>
<path d="M225.882 57.4208C231.81 63.2118 232.534 72.114 232.534 72.114C232.534 72.114 223.647 71.627 217.72 65.836C211.792 60.045 211.068 51.1428 211.068 51.1428C211.068 51.1428 219.955 51.6298 225.882 57.4208Z" fill="#3F3D56"/>
<path d="M239.186 57.4208C233.258 63.2118 232.534 72.114 232.534 72.114C232.534 72.114 241.421 71.627 247.348 65.836C253.276 60.045 254 51.1428 254 51.1428C254 51.1428 245.113 51.6298 239.186 57.4208Z" fill="#3F3D56"/>
<path d="M31.2918 152.771C29.1316 160.785 21.7324 165.748 21.7324 165.748C21.7324 165.748 17.8356 157.718 19.9958 149.704C22.156 141.69 29.5552 136.726 29.5552 136.726C29.5552 136.726 33.452 144.757 31.2918 152.771Z" fill="#53C634" fill-opacity="0.54"/>
<path d="M11.64 152.771C13.8002 160.785 21.1994 165.748 21.1994 165.748C21.1994 165.748 25.0962 157.718 22.936 149.704C20.7758 141.69 13.3766 136.726 13.3766 136.726C13.3766 136.726 9.47975 144.757 11.64 152.771Z" fill="#53C634" fill-opacity="0.54"/>
<path d="M14.8142 151.048C20.7419 156.839 21.4659 165.741 21.4659 165.741C21.4659 165.741 12.5793 165.254 6.65166 159.463C0.724016 153.672 0 144.77 0 144.77C0 144.77 8.8866 145.257 14.8142 151.048Z" fill="#3F3D56"/>
<path d="M28.1176 151.048C22.1899 156.839 21.4659 165.741 21.4659 165.741C21.4659 165.741 30.3525 165.254 36.2802 159.463C42.2078 153.672 42.9318 144.77 42.9318 144.77C42.9318 144.77 34.0452 145.257 28.1176 151.048Z" fill="#3F3D56"/>
<path d="M172.757 78.7358C175.495 78.7358 177.714 76.5085 177.714 73.761C177.714 71.0135 175.495 68.7863 172.757 68.7863C170.019 68.7863 167.8 71.0135 167.8 73.761C167.8 76.5085 170.019 78.7358 172.757 78.7358Z" fill="#2F2E41"/>
<path d="M167.446 71.6289C167.446 70.402 167.898 69.2183 168.715 68.3055C169.532 67.3927 170.656 66.815 171.872 66.6836C171.179 66.6077 170.479 66.679 169.816 66.893C169.153 67.1069 168.543 67.4586 168.024 67.9252C167.506 68.3918 167.091 68.9627 166.807 69.6009C166.523 70.239 166.376 70.9301 166.376 71.6289C166.376 72.3278 166.523 73.0189 166.807 73.657C167.091 74.2952 167.506 74.8661 168.024 75.3327C168.543 75.7993 169.153 76.151 169.816 76.3649C170.479 76.5789 171.179 76.6502 171.872 76.5743C170.656 76.4429 169.532 75.8652 168.715 74.9524C167.898 74.0396 167.446 72.8559 167.446 71.6289Z" fill="#2F2E41"/>
<path d="M167.8 73.761C167.8 73.761 167.03 77.3144 171.841 78.7358L167.8 73.761Z" fill="#53C634" fill-opacity="0.54"/>
<path d="M174.807 107.552C183.998 107.552 191.448 100.075 191.448 90.8509C191.448 81.6272 183.998 74.1499 174.807 74.1499C165.616 74.1499 158.166 81.6272 158.166 90.8509C158.166 100.075 165.616 107.552 174.807 107.552Z" fill="#2F2E41"/>
<path d="M183.999 147.353C183.785 147.532 183.571 147.708 183.355 147.881C178.923 151.485 174.123 154.609 169.036 157.2C168.735 157.352 168.433 157.505 168.129 157.655C167.647 157.893 167.16 158.126 166.673 158.353L158.143 155.5L158.24 153.449V153.442L158.612 145.62L158.738 142.946L183.999 147.353Z" fill="#A0616A"/>
<path d="M168.129 157.655C167.647 157.893 167.16 158.126 166.673 158.353C163.341 159.917 159.904 161.245 156.387 162.328C156.37 162.277 156.359 162.223 156.357 162.168L158.142 153.408L158.24 153.449L168.129 157.655Z" fill="#2F2E41"/>
<path d="M170.653 108.57C176.739 108.57 181.673 103.618 181.673 97.5101C181.673 91.4019 176.739 86.4502 170.653 86.4502C164.567 86.4502 159.633 91.4019 159.633 97.5101C159.633 103.618 164.567 108.57 170.653 108.57Z" fill="#A0616A"/>
<path d="M179.588 98.1079C179.588 98.1079 181.375 107.075 184.652 109.168L166.483 130.69L159.633 124.114L164.696 115.146C164.696 115.146 170.355 111.858 168.568 107.374L179.588 98.1079Z" fill="#A0616A"/>
<path d="M201.15 127.808C197.921 132.928 194.142 137.677 189.883 141.971C189.7 137.962 189.303 134.657 188.524 133.679C188.523 133.679 188.521 133.678 188.519 133.676L178.992 130.689C178.992 130.689 181.077 110.96 186.141 110.065C186.141 110.065 186.875 110.215 188.017 110.562C191.697 111.674 199.598 114.809 200.735 121.422C201.058 123.534 201.197 125.671 201.15 127.808Z" fill="#A0616A"/>
<path d="M164.696 115.146C164.696 115.146 155.761 114.847 150.102 122.021C144.442 129.195 130.742 134.576 130.742 134.576L96.4891 148.027C96.4891 148.027 90.2344 136.967 86.3624 140.853C82.4904 144.739 93.5107 154.603 98.5741 153.407C103.637 152.212 134.316 142.945 134.316 142.945L158.739 131.885L164.696 115.146Z" fill="#A0616A"/>
<path d="M188.524 133.679L187.282 144.48C186.215 145.468 185.121 146.426 183.999 147.353C183.785 147.532 183.571 147.708 183.355 147.881C174.755 145.235 161.279 145.53 158.612 145.62C158.307 145.628 158.143 145.636 158.143 145.636L157.846 139.359C154.988 138.404 154.05 136.317 154.024 134.02C153.98 129.856 156.952 125.009 156.952 125.009C157.485 124.474 161.472 116.888 162.297 115.316C162.392 115.132 162.446 115.031 162.446 115.031L166.021 114.136C166.021 114.136 166.011 114.165 165.99 114.216C165.67 115.114 162.892 123.233 167.675 123.514C172.381 123.794 182.618 110.531 184.027 108.671C184.133 108.531 184.19 108.456 184.19 108.456L188.063 110.549C188.048 110.554 188.032 110.557 188.017 110.562C185.651 111.221 183.46 116.94 183.46 116.94C177.283 127.865 188.249 133.539 188.519 133.676C188.521 133.678 188.522 133.679 188.524 133.679Z" fill="#D0CDE1"/>
<path d="M171.252 84.5281C165.385 84.5281 160.63 87.3122 160.63 90.7465C160.63 92.2832 161.586 93.6876 163.163 94.7726L165.208 93.2857L164.652 95.6152C164.883 95.7225 165.119 95.8264 165.364 95.9223L168.419 92.3456V96.7396C169.356 96.8903 170.303 96.9656 171.252 96.965C177.118 96.965 181.874 94.1809 181.874 90.7465C181.874 87.3122 177.118 84.5281 171.252 84.5281Z" fill="#2F2E41"/>
<path d="M193.01 86.5076C195.748 86.5076 197.967 84.2804 197.967 81.5329C197.967 78.7854 195.748 76.5581 193.01 76.5581C190.273 76.5581 188.053 78.7854 188.053 81.5329C188.053 84.2804 190.273 86.5076 193.01 86.5076Z" fill="#2F2E41"/>
<path d="M187.699 79.4008C187.7 78.1738 188.152 76.9902 188.968 76.0774C189.785 75.1645 190.91 74.5869 192.125 74.4554C191.949 74.4362 191.772 74.4264 191.594 74.426C190.92 74.4251 190.253 74.562 189.634 74.8285C189.014 75.0951 188.456 75.4856 187.992 75.9762C187.528 76.4668 187.168 77.0472 186.935 77.6819C186.702 78.3166 186.601 78.9923 186.637 79.6677C186.673 80.3431 186.846 81.004 187.146 81.61C187.445 82.2161 187.864 82.7545 188.378 83.1924C188.892 83.6302 189.489 83.9584 190.133 84.1568C190.777 84.3552 191.455 84.4196 192.125 84.3462C190.91 84.2147 189.785 83.6371 188.968 82.7242C188.152 81.8114 187.7 80.6278 187.699 79.4008Z" fill="#2F2E41"/>
<path d="M188.053 81.5328C188.053 81.5328 187.284 85.0862 192.094 86.5076L188.053 81.5328Z" fill="#53C634" fill-opacity="0.54"/>
<path d="M182.12 98.5563C182.595 98.5563 182.981 97.6864 182.981 96.6134C182.981 95.5403 182.595 94.6704 182.12 94.6704C181.645 94.6704 181.26 95.5403 181.26 96.6134C181.26 97.6864 181.645 98.5563 182.12 98.5563Z" fill="#A0616A"/>
<path d="M87.1542 104.13L74.094 107.306L74.0514 107.316L72.6318 108.606L72.2231 108.976L71.3471 108.817L69.7964 108.536L70.8771 104.876L71.0797 97.8939L70.3367 93.6236L74.4567 90.7767C74.4567 90.7767 82.494 90.3023 87.1542 104.13Z" fill="#D0CDE1"/>
<path opacity="0.1" d="M74.094 107.306C73.917 107.684 74.2878 107.434 74.0852 107.824L72.1941 108.434L71.3471 108.817L69.7964 108.536L70.877 104.876L71.0797 97.8939L70.3367 93.6236L74.4567 90.7767C74.4567 90.7767 78.8785 97.0615 74.094 107.306Z" fill="black"/>
<path d="M102.553 94.098C102.553 94.098 85.3982 102.096 78.4416 103.316C71.4849 104.537 72.0928 111.518 72.0928 111.518L111.063 105.418C111.063 105.418 109.713 99.1139 102.553 94.098Z" fill="#D0CDE1"/>
<path d="M69.4587 92.7424C69.4587 92.7424 72.4305 99.9951 69.121 109.01L72.9708 110.773L74.4567 109.01L74.4905 108.841L70.4043 108.468C70.4043 108.468 73.7813 99.3851 71.0121 93.0813C71.0122 93.0813 70.4043 91.7256 69.4587 92.7424Z" fill="#53C634" fill-opacity="0.54"/>
<path d="M126.125 146.494C110.928 143.105 96.7787 150.12 96.7787 150.12L96.7402 150.086L91.1053 145.037L69.0872 108.976L74.4567 109.01C89.3831 100.063 110.388 101.283 110.388 101.283C119.438 111.586 126.125 146.494 126.125 146.494Z" fill="#3F3D56"/>
<path opacity="0.1" d="M96.7402 150.086L91.1053 145.037L69.0872 108.976L74.4567 109.01C74.4567 109.01 95.8575 137.376 96.7402 150.086Z" fill="black"/>
<path d="M99.2132 121.95C103.814 120.534 106.816 117.006 105.919 114.072C105.022 111.137 100.566 109.906 95.9652 111.322C91.3648 112.738 88.3626 116.265 89.2595 119.2C90.1565 122.135 94.6129 123.366 99.2132 121.95Z" fill="#D0CDE1"/>
<path d="M7.16275 76.5966C9.86705 76.5966 12.0593 74.3965 12.0593 71.6825C12.0593 68.9685 9.86705 66.7683 7.16275 66.7683C4.45845 66.7683 2.26617 68.9685 2.26617 71.6825C2.26617 74.3965 4.45845 76.5966 7.16275 76.5966Z" fill="#3F3D56"/>
<path d="M246.322 171C249.026 171 251.218 168.8 251.218 166.086C251.218 163.372 249.026 161.172 246.322 161.172C243.618 161.172 241.425 163.372 241.425 166.086C241.425 168.8 243.618 171 246.322 171Z" fill="#3F3D56"/>
<path d="M28.5531 76.0794C30.688 76.0794 32.4188 74.3424 32.4188 72.1998C32.4188 70.0571 30.688 68.3202 28.5531 68.3202C26.4181 68.3202 24.6873 70.0571 24.6873 72.1998C24.6873 74.3424 26.4181 76.0794 28.5531 76.0794Z" fill="#53C634" fill-opacity="0.54"/>
<path d="M246.322 76.0794C248.457 76.0794 250.187 74.3424 250.187 72.1998C250.187 70.0571 248.457 68.3202 246.322 68.3202C244.187 68.3202 242.456 70.0571 242.456 72.1998C242.456 74.3424 244.187 76.0794 246.322 76.0794Z" fill="#53C634" fill-opacity="0.54"/>
<path d="M7.16275 169.448C9.29772 169.448 11.0285 167.711 11.0285 165.569C11.0285 163.426 9.29772 161.689 7.16275 161.689C5.02777 161.689 3.29703 163.426 3.29703 165.569C3.29703 167.711 5.02777 169.448 7.16275 169.448Z" fill="#53C634" fill-opacity="0.54"/>
</svg>
