<svg width="263" height="152" viewBox="0 0 263 152" fill="none" xmlns="http://www.w3.org/2000/svg">
<path d="M184.844 79.5177L168.073 87.481L182.916 76.3459C180.504 72.5681 177.794 68.9903 174.812 65.6466L102.08 83.784L167.778 58.6402C164.775 55.9827 161.587 53.5446 158.237 51.3446L47.411 69.2546C35.644 84.0175 29.2295 102.356 29.2204 121.258H196.044C196.037 106.598 192.174 92.1998 184.844 79.5177Z" fill="#F2F2F2"/>
<path d="M149.167 46.1743C132.388 37.9866 113.359 35.6752 95.1169 39.6093C76.8752 43.5434 60.4733 53.496 48.5299 67.8781C74.7307 62.1184 120.348 52.148 149.167 46.1743Z" fill="#F2F2F2"/>
<path d="M134.046 47.7904C131.191 56.2712 126.813 63.9984 117.891 63.9984C108.969 63.9984 102.239 56.7276 101.736 47.7904C101.094 36.3704 108.763 31.5351 117.891 31.5824C128.674 31.6383 137.434 37.7258 134.046 47.7904Z" fill="#2F2E41"/>
<path d="M130.987 45.6342H104.563V84.2698H130.987V45.6342Z" fill="#2F2E41"/>
<path d="M113.833 67.8176C113.833 67.8176 114.679 79.9718 112.707 81.9504C110.734 83.929 130.174 85.6249 129.892 83.3636C129.61 81.1024 125.948 66.4044 127.075 63.2952C128.202 60.1859 113.833 67.8176 113.833 67.8176Z" fill="#FFB8B8"/>
<path opacity="0.1" d="M113.833 67.8176C113.833 67.8176 114.679 79.9718 112.707 81.9504C110.734 83.929 130.174 85.6249 129.892 83.3636C129.61 81.1024 125.948 66.4044 127.075 63.2952C128.202 60.1859 113.833 67.8176 113.833 67.8176Z" fill="black"/>
<path d="M95.2418 98.911L85.1189 133.253L84.7133 134.637H67.6793C74.4571 113.587 91.2131 82.5468 91.2131 82.5468L93.8289 81.9519L95.2418 98.911Z" fill="#A2E091"/>
<path opacity="0.1" d="M95.2418 98.911L85.1189 133.253L84.7133 134.637H67.6793C74.4571 113.587 91.2131 82.5468 91.2131 82.5468L93.8289 81.9519L95.2418 98.911Z" fill="black"/>
<path d="M117.214 72.0575C124.216 72.0575 129.892 66.3628 129.892 59.338C129.892 52.3132 124.216 46.6185 117.214 46.6185C110.212 46.6185 104.536 52.3132 104.536 59.338C104.536 66.3628 110.212 72.0575 117.214 72.0575Z" fill="#FFB8B8"/>
<path d="M130.737 79.6892C130.737 79.6892 126.229 83.929 121.158 83.081C116.087 82.2331 113.958 76.046 113.958 76.046L109.044 79.6892C109.044 79.6892 107.635 89.8648 114.115 90.9954C120.595 92.126 129.892 92.4086 131.864 90.9954C133.836 89.5821 130.737 79.6892 130.737 79.6892Z" fill="#3F3D56"/>
<path d="M146.233 94.667L145.425 97.3028L134.011 134.637H84.8891C84.9936 134.181 85.0703 133.719 85.119 133.253C85.7545 127.939 85.3799 114.532 85.3799 113.61C85.3799 112.477 90.1662 84.4967 91.2982 82.5156C91.4736 82.2759 91.7043 82.0825 91.9705 81.952C93.2842 81.1948 96.1894 80.3466 99.3215 79.598C99.3244 79.5951 99.3244 79.5951 99.3272 79.5951C101.078 79.1681 102.905 78.7753 104.562 78.4423H104.565C106.19 78.1149 107.648 77.8474 108.715 77.6709C109.29 77.5602 109.871 77.4795 110.454 77.429C110.715 77.429 110.905 77.7392 111.033 78.2146C111.462 79.763 111.297 83.0791 111.297 83.0791C111.677 83.5177 112.101 83.9164 112.562 84.269C113.645 85.123 114.834 85.8338 116.097 86.3839C117.181 86.8605 118.303 87.2442 119.451 87.531H119.454C120.66 87.8378 121.889 88.0519 123.128 88.1714C124.138 88.2881 125.159 88.268 126.163 88.1117H126.169C129.157 87.6164 130.252 85.7548 130.762 84.269C130.853 83.9985 130.924 83.7395 130.986 83.5033C130.986 83.5004 130.989 83.4947 130.989 83.4919C131.177 82.766 131.256 82.2565 131.455 82.2651H131.457C131.971 82.3135 138.448 87.8839 142.656 91.5416C144.653 93.2751 146.137 94.5845 146.227 94.6642L146.233 94.667Z" fill="#A2E091"/>
<path opacity="0.1" d="M145.425 97.3028L134.011 134.637H129.383C129.8 134.025 129.98 133.283 129.891 132.547C129.744 131.506 132.958 120.891 136.054 111.014C138.868 102.039 141.583 93.6821 141.583 93.6821L144.258 94.9516C144.258 94.9516 144.738 95.8597 145.425 97.3028Z" fill="black"/>
<path d="M153.559 131.13C153.002 131.269 153.062 132.926 153.031 134.637H131.168C131.434 134.306 131.633 133.927 131.752 133.519C131.872 133.112 131.911 132.685 131.866 132.263C131.721 131.264 133.878 120.962 136.054 111.014C137.764 103.147 139.489 95.4982 140.088 92.8367C140.235 92.1935 140.315 91.8462 140.315 91.8462L140.573 91.9686L140.579 91.9714L146.227 94.6642L146.233 94.667C146.233 94.667 154.966 111.347 152.151 115.304C149.331 119.26 149.331 119.26 150.458 121.241C151.584 123.217 154.682 130.848 153.559 131.13Z" fill="#A2E091"/>
<path d="M117.891 34.9945C121.413 34.9945 124.268 32.1301 124.268 28.5966C124.268 25.0632 121.413 22.1987 117.891 22.1987C114.369 22.1987 111.514 25.0632 111.514 28.5966C111.514 32.1301 114.369 34.9945 117.891 34.9945Z" fill="#2F2E41"/>
<path d="M110.239 25.1844C110.239 23.5984 110.826 22.069 111.887 20.8928C112.947 19.7166 114.405 18.9775 115.978 18.8188C115.768 18.7979 115.556 18.7865 115.34 18.7865C113.649 18.7865 112.027 19.4606 110.831 20.6604C109.635 21.8602 108.964 23.4876 108.964 25.1844C108.964 26.8812 109.635 28.5086 110.831 29.7084C112.027 30.9082 113.649 31.5823 115.34 31.5823C115.556 31.5823 115.768 31.5709 115.978 31.55C114.405 31.3913 112.947 30.6522 111.887 29.476C110.826 28.2998 110.239 26.7704 110.239 25.1844Z" fill="#2F2E41"/>
<path d="M113.201 43.3124C113.201 43.3124 113.067 42.5687 107.86 44.5281C102.652 46.4874 99.5303 60.9463 102.134 69.4366C103.183 72.8582 102.33 75.3252 100.937 77.0513C95.7084 83.5286 97.7665 93.2574 105.382 96.5883C105.597 96.6823 105.816 96.7752 106.04 96.8671L109.295 98.8264C109.295 98.8264 105.146 93.349 107.222 86.3423C109.025 80.3724 109.248 74.0343 107.868 67.9518C107.63 66.9257 107.359 65.868 107.052 64.7886C104.448 55.6451 105.714 56.7011 114.828 47.5576C114.828 47.5576 120.036 51.4762 124.592 53.4356C129.149 55.3949 133.055 57.3542 129.8 63.8852C126.545 70.4163 118.734 76.2942 123.941 84.7846C129.149 93.275 129.8 90.0095 129.149 93.275L128.498 96.5405L132.404 92.6219L129.8 97.8467C129.8 97.8467 138.263 97.8467 140.867 91.3157L142.168 92.6219C142.168 92.6219 147.376 83.4784 137.612 74.9881C137.612 74.9881 134.357 73.0288 138.914 66.4977C143.47 59.9667 139.971 45.9249 134.112 43.3125C128.253 40.7 113.201 43.3124 113.201 43.3124Z" fill="#2F2E41"/>
<path d="M117.214 84.4423L106.368 103.291H108.903V105.835L121.231 84.4423H117.214Z" fill="#3F3D56"/>
<path d="M258.744 122.112H214.769V139.476H258.744V122.112Z" fill="#F2F2F2"/>
<path d="M253.212 144.315H220.302V147.161H253.212V144.315Z" fill="#F2F2F2"/>
<path d="M253.212 149.438H220.302V151.715H253.212V149.438Z" fill="#F2F2F2"/>
<path d="M4.53938 4.55438C5.16614 4.55438 5.67423 4.04462 5.67423 3.4158C5.67423 2.78698 5.16614 2.27722 4.53938 2.27722C3.91263 2.27722 3.40454 2.78698 3.40454 3.4158C3.40454 4.04462 3.91263 4.55438 4.53938 4.55438Z" fill="#A2E091"/>
<path d="M7.6602 4.55438C8.28696 4.55438 8.79505 4.04462 8.79505 3.4158C8.79505 2.78698 8.28696 2.27722 7.6602 2.27722C7.03345 2.27722 6.52536 2.78698 6.52536 3.4158C6.52536 4.04462 7.03345 4.55438 7.6602 4.55438Z" fill="#A2E091"/>
<path d="M10.781 4.55438C11.4078 4.55438 11.9159 4.04462 11.9159 3.4158C11.9159 2.78698 11.4078 2.27722 10.781 2.27722C10.1543 2.27722 9.64618 2.78698 9.64618 3.4158C9.64618 4.04462 10.1543 4.55438 10.781 4.55438Z" fill="#A2E091"/>
<path d="M263 152H0V0H263V152ZM0.567422 151.431H262.433V0.569288H0.567422V151.431Z" fill="#2F2E41"/>
<path d="M262.716 5.71753H0.283722V6.28682H262.716V5.71753Z" fill="#2F2E41"/>
<path d="M11.9159 10.5319H3.40454V11.1011H11.9159V10.5319Z" fill="#2F2E41"/>
<path d="M11.9159 12.809H3.40454V13.3782H11.9159V12.809Z" fill="#2F2E41"/>
<path d="M11.9159 15.0862H3.40454V15.6555H11.9159V15.0862Z" fill="#2F2E41"/>
<path d="M181.291 15.6555H75.7508V10.5319H181.291V15.6555ZM76.3182 15.0862H180.724V11.1011H76.3182V15.0862Z" fill="#2F2E41"/>
<path d="M177.036 13.8052C176.811 13.8052 176.592 13.7385 176.405 13.6133C176.218 13.4882 176.073 13.3104 175.987 13.1024C175.901 12.8943 175.879 12.6654 175.923 12.4445C175.966 12.2237 176.074 12.0208 176.233 11.8616C176.392 11.7023 176.594 11.5939 176.814 11.55C177.034 11.506 177.263 11.5286 177.47 11.6147C177.677 11.7009 177.854 11.8469 177.979 12.0341C178.104 12.2213 178.17 12.4415 178.17 12.6667C178.17 12.9685 178.05 13.2579 177.838 13.4714C177.625 13.6848 177.336 13.8049 177.036 13.8052ZM177.036 12.0974C176.923 12.0974 176.814 12.1308 176.72 12.1933C176.627 12.2559 176.554 12.3448 176.511 12.4488C176.468 12.5528 176.457 12.6673 176.479 12.7777C176.501 12.8881 176.555 12.9896 176.634 13.0692C176.714 13.1488 176.815 13.203 176.925 13.225C177.035 13.247 177.149 13.2357 177.253 13.1926C177.356 13.1495 177.445 13.0766 177.507 12.9829C177.57 12.8893 177.603 12.7792 177.603 12.6667C177.603 12.5157 177.543 12.371 177.437 12.2643C177.33 12.1576 177.186 12.0975 177.036 12.0974Z" fill="#2F2E41"/>
<path d="M177.817 13.0821L177.422 13.4907L178.54 14.5788L178.935 14.1702L177.817 13.0821Z" fill="#2F2E41"/>
<path d="M244.842 15.6555H239.168V10.5319H244.842V15.6555ZM239.736 15.0862H244.275V11.1011H239.736V15.0862Z" fill="#2F2E41"/>
<path d="M251.935 15.6555H246.261V10.5319H251.935V15.6555ZM246.828 15.0862H251.368V11.1011H246.828V15.0862Z" fill="#2F2E41"/>
<path d="M259.028 15.6555H253.354V10.5319H259.028V15.6555ZM253.921 15.0862H258.461V11.1011H253.921V15.0862Z" fill="#2F2E41"/>
<path d="M193.775 138.052H188.668V142.607H193.775V138.052Z" fill="#FF6584"/>
<path d="M200.867 138.052H195.761V142.607H200.867V138.052Z" fill="#F2F2F2"/>
<path d="M207.96 138.052H202.853V142.607H207.96V138.052Z" fill="#F2F2F2"/>
<path d="M207.676 134.921H14.1855V24.4794H207.676V134.921ZM14.753 134.352H207.109V25.0487H14.753V134.352Z" fill="#2F2E41"/>
<path d="M43.5819 124.781V127.455L39.154 124.744C39.1305 124.73 39.1037 124.723 39.0763 124.723C39.049 124.723 39.0221 124.73 38.9984 124.743C38.9746 124.757 38.9549 124.776 38.9411 124.8C38.9273 124.824 38.9201 124.851 38.92 124.878V130.739C38.9201 130.767 38.9273 130.794 38.9411 130.817C38.9549 130.841 38.9746 130.861 38.9984 130.874C39.0221 130.888 39.049 130.895 39.0763 130.895C39.1037 130.894 39.1305 130.887 39.154 130.873L43.5819 128.162V130.836C43.5819 130.857 43.5901 130.877 43.6046 130.891C43.6191 130.906 43.6387 130.914 43.6592 130.914H45.0327C45.0532 130.914 45.0728 130.906 45.0873 130.891C45.1018 130.877 45.11 130.857 45.11 130.836V124.781C45.11 124.761 45.1018 124.741 45.0873 124.726C45.0728 124.712 45.0532 124.704 45.0327 124.703H43.6592C43.6387 124.704 43.6191 124.712 43.6046 124.726C43.5901 124.741 43.5819 124.761 43.5819 124.781Z" fill="#3F3D56"/>
<path d="M31.7737 130.914H30.5396C30.5191 130.914 30.4988 130.91 30.4799 130.902C30.4609 130.895 30.4437 130.883 30.4291 130.869C30.4146 130.854 30.403 130.837 30.3951 130.818C30.3871 130.799 30.383 130.779 30.3829 130.759V124.859C30.383 124.838 30.3871 124.818 30.3951 124.799C30.403 124.78 30.4146 124.763 30.4291 124.749C30.4437 124.734 30.4609 124.723 30.4799 124.715C30.4988 124.707 30.5191 124.703 30.5396 124.703H31.7737C31.7942 124.703 31.8144 124.707 31.8334 124.715C31.8523 124.723 31.8696 124.734 31.8841 124.749C31.8987 124.763 31.9102 124.78 31.9182 124.799C31.9261 124.818 31.9303 124.838 31.9304 124.859V130.759C31.9303 130.779 31.9261 130.799 31.9182 130.818C31.9102 130.837 31.8987 130.854 31.8841 130.869C31.8696 130.883 31.8523 130.895 31.8334 130.902C31.8144 130.91 31.7942 130.914 31.7737 130.914ZM35.1782 130.914H33.9441C33.9236 130.914 33.9034 130.91 33.8844 130.902C33.8655 130.895 33.8482 130.883 33.8337 130.869C33.8191 130.854 33.8075 130.837 33.7996 130.818C33.7917 130.799 33.7875 130.779 33.7874 130.759V124.859C33.7875 124.838 33.7917 124.818 33.7996 124.799C33.8075 124.78 33.8191 124.763 33.8337 124.749C33.8482 124.734 33.8655 124.723 33.8844 124.715C33.9034 124.707 33.9236 124.703 33.9441 124.703H35.1782C35.1987 124.703 35.219 124.707 35.2379 124.715C35.2569 124.723 35.2741 124.734 35.2887 124.749C35.3032 124.763 35.3148 124.78 35.3227 124.799C35.3307 124.818 35.3348 124.838 35.3349 124.859V130.759C35.3348 130.779 35.3307 130.799 35.3227 130.818C35.3148 130.837 35.3032 130.854 35.2887 130.869C35.2741 130.883 35.2569 130.895 35.2379 130.902C35.219 130.91 35.1987 130.914 35.1782 130.914Z" fill="#3F3D56"/>
<path d="M22.4132 124.865V130.753C22.4117 130.78 22.4175 130.807 22.4302 130.832C22.4428 130.856 22.4617 130.876 22.4849 130.89C22.508 130.905 22.5346 130.912 22.5619 130.913C22.5891 130.913 22.6159 130.906 22.6395 130.893L27.2917 127.949C27.3145 127.933 27.3331 127.913 27.346 127.888C27.359 127.864 27.3657 127.837 27.3657 127.81C27.3657 127.782 27.359 127.755 27.346 127.731C27.3331 127.707 27.3145 127.686 27.2917 127.671L22.6395 124.727C22.6161 124.713 22.5894 124.705 22.5622 124.706C22.5349 124.706 22.5082 124.713 22.4849 124.727C22.4617 124.742 22.4427 124.762 22.43 124.786C22.4174 124.81 22.4115 124.837 22.4132 124.865Z" fill="#A2E091"/>
<path d="M198.456 120.689H23.4062V121.828H198.456V120.689Z" fill="#2F2E41"/>
<path d="M53.9051 120.689H23.4062V121.828H53.9051V120.689Z" fill="#A2E091"/>
<path d="M94.7595 138.622H14.4693V141.753H94.7595V138.622Z" fill="#F2F2F2"/>
<path d="M32.0593 145.738H14.4693V148.869H32.0593V145.738Z" fill="#F2F2F2"/>
<path d="M258.744 30.4569H214.769V47.8202H258.744V30.4569Z" fill="#F2F2F2"/>
<path d="M253.212 52.6592H220.302V55.5056H253.212V52.6592Z" fill="#F2F2F2"/>
<path d="M253.212 57.7827H220.302V60.6292H253.212V57.7827Z" fill="#F2F2F2"/>
<path d="M253.212 62.9064H220.302V65.7528H253.212V62.9064Z" fill="#F2F2F2"/>
<path d="M258.744 76.2847H214.769V93.648H258.744V76.2847Z" fill="#F2F2F2"/>
<path d="M253.212 98.4869H220.302V101.333H253.212V98.4869Z" fill="#F2F2F2"/>
<path d="M253.212 103.61H220.302V106.457H253.212V103.61Z" fill="#F2F2F2"/>
<path d="M253.212 108.734H220.302V111.581H253.212V108.734Z" fill="#F2F2F2"/>
<path d="M187.778 121.21L187.192 120.766C185.11 119.16 183.737 118.119 183.611 116.684C183.583 116.411 183.609 116.135 183.689 115.873C183.768 115.61 183.899 115.367 184.074 115.156C184.249 114.946 184.465 114.772 184.708 114.647C184.951 114.521 185.216 114.446 185.489 114.425C185.81 114.398 186.134 114.442 186.436 114.554C186.739 114.665 187.014 114.842 187.242 115.07C187.427 114.805 187.668 114.584 187.947 114.421C188.226 114.259 188.536 114.159 188.858 114.129C189.129 114.102 189.404 114.13 189.665 114.212C189.926 114.293 190.168 114.426 190.377 114.603C190.586 114.78 190.757 114.997 190.881 115.241C191.005 115.486 191.078 115.753 191.097 116.026C191.222 117.462 190.05 118.726 188.278 120.671L187.778 121.21Z" fill="#FF6584"/>
<path d="M194.708 113.892L194.387 113.23C193.259 110.85 192.507 109.298 193.045 107.962C193.143 107.706 193.291 107.472 193.48 107.274C193.67 107.077 193.897 106.919 194.148 106.812C194.4 106.704 194.67 106.647 194.943 106.646C195.217 106.645 195.487 106.699 195.74 106.805C196.038 106.927 196.306 107.114 196.526 107.351C196.745 107.588 196.91 107.871 197.01 108.179C197.295 108.027 197.609 107.939 197.931 107.921C198.253 107.903 198.575 107.956 198.875 108.076C199.129 108.176 199.361 108.326 199.557 108.517C199.753 108.708 199.908 108.937 200.014 109.19C200.12 109.443 200.175 109.714 200.174 109.988C200.174 110.263 200.119 110.534 200.012 110.786C199.474 112.123 197.857 112.715 195.398 113.64L194.708 113.892Z" fill="#FF6584"/>
<path d="M191.871 132.964L191.55 132.302C190.422 129.922 189.669 128.369 190.208 127.033C190.306 126.777 190.454 126.543 190.643 126.346C190.833 126.148 191.06 125.991 191.311 125.883C191.563 125.775 191.833 125.719 192.106 125.717C192.38 125.716 192.65 125.77 192.903 125.876C193.201 125.999 193.469 126.185 193.688 126.422C193.908 126.66 194.073 126.942 194.173 127.25C194.457 127.098 194.772 127.01 195.094 126.992C195.416 126.974 195.738 127.027 196.038 127.147C196.292 127.247 196.524 127.397 196.72 127.588C196.916 127.78 197.071 128.008 197.177 128.261C197.283 128.514 197.338 128.785 197.337 129.06C197.337 129.334 197.281 129.605 197.175 129.858C196.636 131.194 195.02 131.786 192.56 132.711L191.871 132.964Z" fill="#FF6584"/>
</svg>
